<?xml version="1.0" encoding="UTF-8" standalone="no"?>
<!-- Generated by graphviz version 2.26.3 (20100126.1600)
 -->

<!-- Title: _anonymous_0 Pages: 1 -->

<svg
   xmlns:dc="http://purl.org/dc/elements/1.1/"
   xmlns:cc="http://creativecommons.org/ns#"
   xmlns:rdf="http://www.w3.org/1999/02/22-rdf-syntax-ns#"
   xmlns:svg="http://www.w3.org/2000/svg"
   xmlns="http://www.w3.org/2000/svg"
   xmlns:sodipodi="http://sodipodi.sourceforge.net/DTD/sodipodi-0.dtd"
   xmlns:inkscape="http://www.inkscape.org/namespaces/inkscape"
   width="394.79089"
   height="216.21298"
   viewBox="0 0 315.83272 172.97037"
   id="svg2"
   version="1.1"
   inkscape:version="0.48.4 r9939"
   sodipodi:docname="x.svg"
   inkscape:export-filename="/home/voj/proj/opensym2014/mappings.png"
   inkscape:export-xdpi="91.190002"
   inkscape:export-ydpi="91.190002">
  <metadata
     id="metadata114">
    <rdf:RDF>
      <cc:Work
         rdf:about="">
        <dc:format>image/svg+xml</dc:format>
        <dc:type
           rdf:resource="http://purl.org/dc/dcmitype/StillImage" />
        <dc:title></dc:title>
      </cc:Work>
    </rdf:RDF>
  </metadata>
  <defs
     id="defs112">
    <marker
       inkscape:stockid="Arrow2Mend"
       orient="auto"
       refY="0.0"
       refX="0.0"
       id="Arrow2Mend"
       style="overflow:visible;">
      <path
         id="path3937"
         style="fill-rule:evenodd;stroke-width:0.62500000;stroke-linejoin:round;"
         d="M 8.7185878,4.0337352 L -2.2072895,0.016013256 L 8.7185884,-4.0017078 C 6.9730900,-1.6296469 6.9831476,1.6157441 8.7185878,4.0337352 z "
         transform="scale(0.6) rotate(180) translate(0,0)" />
    </marker>
    <marker
       inkscape:stockid="Arrow1Send"
       orient="auto"
       refY="0.0"
       refX="0.0"
       id="Arrow1Send"
       style="overflow:visible;">
      <path
         id="path3925"
         d="M 0.0,0.0 L 5.0,-5.0 L -12.5,0.0 L 5.0,5.0 L 0.0,0.0 z "
         style="fill-rule:evenodd;stroke:#000000;stroke-width:1.0pt;"
         transform="scale(0.2) rotate(180) translate(6,0)" />
    </marker>
    <marker
       inkscape:stockid="Arrow1Mstart"
       orient="auto"
       refY="0.0"
       refX="0.0"
       id="Arrow1Mstart"
       style="overflow:visible">
      <path
         id="path3916"
         d="M 0.0,0.0 L 5.0,-5.0 L -12.5,0.0 L 5.0,5.0 L 0.0,0.0 z "
         style="fill-rule:evenodd;stroke:#000000;stroke-width:1.0pt"
         transform="scale(0.4) translate(10,0)" />
    </marker>
    <marker
       inkscape:stockid="EmptyTriangleOutL"
       orient="auto"
       refY="0.0"
       refX="0.0"
       id="EmptyTriangleOutL"
       style="overflow:visible">
      <path
         id="path4070"
         d="M 5.77,0.0 L -2.88,5.0 L -2.88,-5.0 L 5.77,0.0 z "
         style="fill-rule:evenodd;fill:#FFFFFF;stroke:#000000;stroke-width:1.0pt"
         transform="scale(0.8) translate(-6,0)" />
    </marker>
    <marker
       inkscape:stockid="Arrow2Lend"
       orient="auto"
       refY="0.0"
       refX="0.0"
       id="Arrow2Lend"
       style="overflow:visible;">
      <path
         id="path3931"
         style="fill-rule:evenodd;stroke-width:0.62500000;stroke-linejoin:round;"
         d="M 8.7185878,4.0337352 L -2.2072895,0.016013256 L 8.7185884,-4.0017078 C 6.9730900,-1.6296469 6.9831476,1.6157441 8.7185878,4.0337352 z "
         transform="scale(1.1) rotate(180) translate(1,0)" />
    </marker>
    <marker
       inkscape:stockid="Arrow1Lend"
       orient="auto"
       refY="0.0"
       refX="0.0"
       id="Arrow1Lend"
       style="overflow:visible;">
      <path
         id="path3913"
         d="M 0.0,0.0 L 5.0,-5.0 L -12.5,0.0 L 5.0,5.0 L 0.0,0.0 z "
         style="fill-rule:evenodd;stroke:#000000;stroke-width:1.0pt;"
         transform="scale(0.8) rotate(180) translate(12.5,0)" />
    </marker>
    <marker
       inkscape:stockid="Arrow2Mend"
       orient="auto"
       refY="0"
       refX="0"
       id="Arrow2Mend-8"
       style="overflow:visible">
      <path
         inkscape:connector-curvature="0"
         id="path3937-0"
         style="fill-rule:evenodd;stroke-width:0.625;stroke-linejoin:round"
         d="M 8.7185878,4.0337352 -2.2072895,0.01601326 8.7185884,-4.0017078 c -1.7454984,2.3720609 -1.7354408,5.6174519 -6e-7,8.035443 z"
         transform="scale(-0.6,-0.6)" />
    </marker>
    <marker
       inkscape:stockid="Arrow2Mend"
       orient="auto"
       refY="0"
       refX="0"
       id="Arrow2Mend-0"
       style="overflow:visible">
      <path
         inkscape:connector-curvature="0"
         id="path3937-6"
         style="fill-rule:evenodd;stroke-width:0.625;stroke-linejoin:round"
         d="M 8.7185878,4.0337352 -2.2072895,0.01601326 8.7185884,-4.0017078 c -1.7454984,2.3720609 -1.7354408,5.6174519 -6e-7,8.035443 z"
         transform="scale(-0.6,-0.6)" />
    </marker>
    <marker
       inkscape:stockid="Arrow2Mend"
       orient="auto"
       refY="0"
       refX="0"
       id="Arrow2Mend-7"
       style="overflow:visible">
      <path
         inkscape:connector-curvature="0"
         id="path3937-7"
         style="fill-rule:evenodd;stroke-width:0.625;stroke-linejoin:round"
         d="M 8.7185878,4.0337352 -2.2072895,0.01601326 8.7185884,-4.0017078 c -1.7454984,2.3720609 -1.7354408,5.6174519 -6e-7,8.035443 z"
         transform="scale(-0.6,-0.6)" />
    </marker>
  </defs>
  <sodipodi:namedview
     pagecolor="#ffffff"
     bordercolor="#666666"
     borderopacity="1"
     objecttolerance="10"
     gridtolerance="10"
     guidetolerance="10"
     inkscape:pageopacity="0"
     inkscape:pageshadow="2"
     inkscape:window-width="959"
     inkscape:window-height="576"
     id="namedview110"
     showgrid="false"
     units="mm"
     fit-margin-top="1"
     fit-margin-left="1"
     fit-margin-right="1"
     fit-margin-bottom="1"
     inkscape:zoom="1.6"
     inkscape:cx="229.89248"
     inkscape:cy="98.563678"
     inkscape:window-x="65"
     inkscape:window-y="24"
     inkscape:window-maximized="1"
     inkscape:current-layer="graph1" />
  <g
     id="graph1"
     class="graph"
     transform="translate(2.0846457,151.86454)">
    <rect
       style="fill:#ffffff;fill-opacity:1;stroke:none"
       id="rect6659"
       width="395.625"
       height="218.125"
       x="0"
       y="-0.66201794"
       transform="matrix(0.80000001,0,0,0.80000001,-2.0846457,-151.86455)" />
    <title
       id="title5">_anonymous_0</title>
    <g
       id="graph2"
       class="cluster">
      <title
         id="title10">cluster_wikidata</title>
      <polygon
         points="1.23812,-123.141 163.238,-123.141 163.238,-0.140888 1.23812,-0.140888 1.23812,-0.140888 "
         id="polygon12"
         style="fill:none;stroke:#000000" />
    </g>
    <g
       id="graph3"
       class="cluster"
       transform="translate(89.79697,98.06602)">
      <title
         id="title15">cluster_file1</title>
      <polygon
         points="165.238,-227.641 213.238,-227.641 213.238,-143.641 165.238,-143.641 165.238,-143.641 "
         id="polygon17"
         style="fill:none;stroke:#000000" />
    </g>
    <g
       id="graph4"
       class="cluster"
       transform="translate(155.5579,153.92745)">
      <title
         id="title20">cluster_file2</title>
      <polygon
         points="99.7381,-191.141 146.738,-191.141 146.738,-144.141 99.7381,-144.141 99.7381,-144.141 "
         id="polygon22"
         style="fill:none;stroke:#000000" />
    </g>
    <!-- a -->
    <g
       id="node2"
       class="node">
      <title
         id="title25">a</title>
      <ellipse
         cx="82.238098"
         cy="-99.1409"
         rx="14"
         ry="14.5"
         id="ellipse27"
         d="m 96.238098,-99.1409 c 0,8.008129 -6.268013,14.5 -14,14.5 -7.731986,0 -14,-6.491871 -14,-14.5 0,-8.00813 6.268014,-14.5 14,-14.5 7.731987,0 14,6.49187 14,14.5 z"
         sodipodi:cx="82.238098"
         sodipodi:cy="-99.1409"
         sodipodi:rx="14"
         sodipodi:ry="14.5"
         style="fill:none;stroke:#000000" />
    </g>
    <!-- b -->
    <g
       id="node3"
       class="node">
      <title
         id="title30">b</title>
      <ellipse
         cx="24.6381"
         cy="-27.1409"
         rx="14"
         ry="14.5"
         id="ellipse32"
         d="m 38.6381,-27.1409 c 0,8.008129 -6.268014,14.5 -14,14.5 -7.731987,0 -14,-6.491871 -14,-14.5 0,-8.008129 6.268013,-14.5 14,-14.5 7.731986,0 14,6.491871 14,14.5 z"
         sodipodi:cx="24.6381"
         sodipodi:cy="-27.1409"
         sodipodi:rx="14"
         sodipodi:ry="14.5"
         style="fill:none;stroke:#000000" />
    </g>
    <!-- a&#45;&gt;b -->
    <g
       id="edge3"
       class="edge">
      <title
         id="title35">a-&gt;b</title>
      <path
         d="M 73.2381,-87.8909 C 64.4133,-76.8599 50.7814,-59.82 40.1982,-46.591"
         id="path37"
         inkscape:connector-curvature="0"
         style="fill:none;stroke:#000000" />
      <polygon
         points="33.765,-38.5495 37.2789,-48.5447 42.745,-44.1718 42.745,-44.1718 "
         id="polygon39"
         style="fill:#000000;stroke:#000000" />
    </g>
    <!-- c -->
    <g
       id="node4"
       class="node">
      <title
         id="title42">c</title>
      <text
         x="82.238098"
         y="-23.540899"
         font-size="14.00"
         id="text44"
         style="font-size:14px;text-anchor:middle;font-family:'Times Roman,serif'">...</text>
    </g>
    <!-- a&#45;&gt;c -->
    <g
       id="edge5"
       class="edge">
      <title
         id="title47">a-&gt;c</title>
      <path
         d="m 82.2381,-84.5706 c 0,8.3286 0,19.0633 0,28.9937"
         id="path49"
         inkscape:connector-curvature="0"
         style="fill:none;stroke:#000000" />
      <polygon
         points="82.2381,-45.2689 78.7382,-55.2689 85.7382,-55.2688 85.7382,-55.2688 "
         id="polygon51"
         style="fill:#000000;stroke:#000000" />
    </g>
    <!-- d -->
    <g
       id="node5"
       class="node">
      <title
         id="title54">d</title>
      <ellipse
         cx="139.838"
         cy="-27.1409"
         rx="14"
         ry="14.5"
         id="ellipse56"
         d="m 153.838,-27.1409 c 0,8.008129 -6.26802,14.5 -14,14.5 -7.73199,0 -14,-6.491871 -14,-14.5 0,-8.008129 6.26801,-14.5 14,-14.5 7.73198,0 14,6.491871 14,14.5 z"
         sodipodi:cx="139.838"
         sodipodi:cy="-27.1409"
         sodipodi:rx="14"
         sodipodi:ry="14.5"
         style="fill:none;stroke:#000000" />
    </g>
    <!-- a&#45;&gt;d -->
    <g
       id="edge7"
       class="edge">
      <title
         id="title59">a-&gt;d</title>
      <path
         d="m 91.2381,-87.8909 c 8.8249,11.031 22.4569,28.0709 33.0399,41.2999"
         id="path61"
         inkscape:connector-curvature="0"
         style="fill:none;stroke:#000000" />
      <polygon
         points="130.711,-38.5495 121.731,-44.1718 127.197,-48.5447 127.197,-48.5447 "
         id="polygon63"
         style="fill:#000000;stroke:#000000" />
    </g>
    <!-- e -->
    <g
       id="node9"
       class="node">
      <title
         id="title66">e</title>
      <ellipse
         cx="139.838"
         cy="-99.1409"
         rx="14"
         ry="14.5"
         id="ellipse68"
         d="m 153.838,-99.1409 c 0,8.008129 -6.26802,14.5 -14,14.5 -7.73199,0 -14,-6.491871 -14,-14.5 0,-8.00813 6.26801,-14.5 14,-14.5 7.73198,0 14,6.49187 14,14.5 z"
         sodipodi:cx="139.838"
         sodipodi:cy="-99.1409"
         sodipodi:rx="14"
         sodipodi:ry="14.5"
         style="fill:none;stroke:#000000" />
    </g>
    <!-- d&#45;&gt;e -->
    <g
       id="edge9"
       class="edge">
      <title
         id="title71">d-&gt;e</title>
      <path
         d="m 139.838,-41.7112 c 0,-9.3687 0,-21.7819 0,-32.6703"
         id="path73"
         inkscape:connector-curvature="0"
         style="fill:none;stroke:#000000" />
      <polygon
         points="139.838,-84.5923 143.338,-74.5923 136.338,-74.5922 136.338,-74.5922 "
         id="polygon75"
         style="fill:#000000;stroke:#000000" />
    </g>
    <!-- f -->
    <g
       id="node11"
       class="node">
      <title
         id="title78">f</title>
      <ellipse
         cx="24.6381"
         cy="-99.1409"
         rx="14"
         ry="14.5"
         id="ellipse80"
         d="m 38.6381,-99.1409 c 0,8.008129 -6.268014,14.5 -14,14.5 -7.731987,0 -14,-6.491871 -14,-14.5 0,-8.00813 6.268013,-14.5 14,-14.5 7.731986,0 14,6.49187 14,14.5 z"
         sodipodi:cx="24.6381"
         sodipodi:cy="-99.1409"
         sodipodi:rx="14"
         sodipodi:ry="14.5"
         style="fill:none;stroke:#000000" />
    </g>
    <!-- f&#45;&gt;a -->
    <g
       id="edge11"
       class="edge">
      <title
         id="title83">f-&gt;a</title>
      <path
         d="m 38.8763,-99.1409 c 5.7197,0 12.4792,0 18.9381,0"
         id="path85"
         inkscape:connector-curvature="0"
         style="fill:none;stroke:#000000" />
      <polygon
         points="68.1637,-99.1409 58.1637,-95.641 58.1637,-102.641 58.1637,-102.641 "
         id="polygon87"
         style="fill:#000000;stroke:#000000" />
    </g>
    <!-- n1 -->
    <ellipse
       style="fill:none;stroke:#000000"
       sodipodi:ry="14.5"
       sodipodi:rx="14"
       sodipodi:cy="-203.64101"
       sodipodi:cx="189.23801"
       d="m 203.23801,-203.64101 c 0,8.00813 -6.26802,14.5 -14,14.5 -7.73199,0 -14,-6.49187 -14,-14.5 0,-8.00813 6.26801,-14.5 14,-14.5 7.73198,0 14,6.49187 14,14.5 z"
       id="ellipse92"
       ry="14.5"
       rx="14"
       cy="-203.64101"
       cx="189.23801"
       transform="translate(89.79697,98.06602)" />
    <!-- n2 -->
    <ellipse
       style="fill:none;stroke:#000000"
       sodipodi:ry="14.5"
       sodipodi:rx="14"
       sodipodi:cy="-167.64101"
       sodipodi:cx="189.23801"
       d="m 203.23801,-167.64101 c 0,8.00813 -6.26802,14.5 -14,14.5 -7.73199,0 -14,-6.49187 -14,-14.5 0,-8.00813 6.26801,-14.5 14,-14.5 7.73198,0 14,6.49187 14,14.5 z"
       id="ellipse99"
       ry="14.5"
       rx="14"
       cy="-167.64101"
       cx="189.23801"
       transform="translate(89.79697,98.06602)" />
    <!-- n3 -->
    <ellipse
       style="fill:none;stroke:#000000"
       sodipodi:ry="14.5"
       sodipodi:rx="14"
       sodipodi:cy="-167.14101"
       sodipodi:cx="122.738"
       d="m 136.738,-167.14101 c 0,8.00813 -6.26801,14.5 -14,14.5 -7.73199,0 -14,-6.49187 -14,-14.5 0,-8.00813 6.26801,-14.5 14,-14.5 7.73199,0 14,6.49187 14,14.5 z"
       id="ellipse106"
       ry="14.5"
       rx="14"
       cy="-167.14101"
       cx="122.738"
       transform="translate(155.5579,153.92745)" />
    <text
       xml:space="preserve"
       style="font-size:32px;font-style:normal;font-weight:normal;line-height:125%;letter-spacing:0px;word-spacing:0px;fill:#000000;fill-opacity:1;stroke:none;font-family:Bitstream Vera Sans"
       x="199.82292"
       y="-135.94243"
       id="text3124"
       sodipodi:linespacing="125%"><tspan
         sodipodi:role="line"
         id="tspan3126"
         x="199.82292"
         y="-135.94243"
         style="font-size:16px">authority files</tspan></text>
    <text
       xml:space="preserve"
       style="font-size:32px;font-style:normal;font-variant:normal;font-weight:normal;font-stretch:normal;line-height:125%;letter-spacing:0px;word-spacing:0px;fill:#000000;fill-opacity:1;stroke:none;font-family:Droid Sans;-inkscape-font-specification:Droid Sans"
       x="2.6877456"
       y="-129.11397"
       id="text3128"
       sodipodi:linespacing="125%"><tspan
         sodipodi:role="line"
         id="tspan3130"
         x="2.6877456"
         y="-129.11397"
         style="font-size:16px">Wikidata</tspan></text>
    <path
       style="fill:none;stroke:#000000;stroke-width:1;stroke-linecap:butt;stroke-linejoin:miter;stroke-miterlimit:4;stroke-opacity:1;stroke-dasharray:none;marker-mid:none;marker-end:url(#Arrow2Mend)"
       d="m 155.07639,-100.07796 108.96436,-5.9554"
       id="path3132"
       inkscape:connector-curvature="0"
       sodipodi:nodetypes="cc" />
    <path
       style="fill:none;stroke:#000000;stroke-width:1;stroke-linecap:butt;stroke-linejoin:miter;stroke-miterlimit:4;stroke-opacity:1;stroke-dasharray:none;marker-mid:none;marker-end:url(#Arrow2Mend)"
       d="M 153.77119,-32.024939 264.23555,-64.98035"
       id="path3132-3"
       inkscape:connector-curvature="0"
       sodipodi:nodetypes="cc" />
    <path
       style="fill:none;stroke:#000000;stroke-width:1;stroke-linecap:butt;stroke-linejoin:miter;stroke-miterlimit:4;stroke-opacity:1;stroke-dasharray:none;marker-mid:none;marker-end:url(#Arrow2Mend)"
       d="m 153.77119,-26.024938 108.46436,11.04459"
       id="path3132-3-7"
       inkscape:connector-curvature="0"
       sodipodi:nodetypes="cc" />
    <text
       xml:space="preserve"
       style="font-size:32px;font-style:normal;font-variant:normal;font-weight:normal;font-stretch:normal;line-height:125%;letter-spacing:0px;word-spacing:0px;fill:#000000;fill-opacity:1;stroke:none;font-family:Droid Sans;-inkscape-font-specification:Droid Sans"
       x="175.11537"
       y="7.7058387"
       id="text6655"
       sodipodi:linespacing="125%"><tspan
         sodipodi:role="line"
         id="tspan6657"
         x="175.11537"
         y="7.7058387"
         style="font-size:14.40000057px;font-style:normal;-inkscape-font-specification:Droid Sans">mappings</tspan></text>
  </g>
</svg>
